<?xml version="1.0" encoding="UTF-8" standalone="no"?>
<svg
   xmlns="http://www.w3.org/2000/svg"
   xmlns:xlink="http://www.w3.org/1999/xlink"
   width="600px"
   height="600px"
   version="1.1" >
   <style type="text/css">
   path { fill: black; stroke-width:2; stroke:none}
   circle { stroke-width:3; stroke: white; }
   </style>
   <defs>
<path id="bbR" d="M 2.671875 -3.125 L 3.03125 -3.125 L 4.53125 -0.8125 C 4.625 -0.65625 4.859375 -0.265625 4.96875 -0.125 C 5.046875 0 5.078125 0 5.296875 0 L 6.671875 0 C 6.859375 0 7.015625 0 7.015625 -0.171875 C 7.015625 -0.265625 6.953125 -0.328125 6.859375 -0.34375 C 6.484375 -0.421875 6 -1.09375 5.765625 -1.40625 C 5.6875 -1.5 5.1875 -2.15625 4.53125 -3.234375 C 5.40625 -3.40625 6.265625 -3.78125 6.265625 -4.96875 C 6.265625 -6.34375 4.8125 -6.828125 3.625 -6.828125 L 0.5 -6.828125 C 0.3125 -6.828125 0.15625 -6.828125 0.15625 -6.65625 C 0.15625 -6.484375 0.34375 -6.484375 0.421875 -6.484375 C 1 -6.484375 1.046875 -6.40625 1.046875 -5.90625 L 1.046875 -0.921875 C 1.046875 -0.421875 1 -0.34375 0.421875 -0.34375 C 0.34375 -0.34375 0.15625 -0.34375 0.15625 -0.171875 C 0.15625 0 0.3125 0 0.5 0 L 3.234375 0 C 3.40625 0 3.5625 0 3.5625 -0.171875 C 3.5625 -0.34375 3.390625 -0.34375 3.28125 -0.34375 C 2.71875 -0.34375 2.671875 -0.421875 2.671875 -0.921875 L 2.671875 -3.125 Z M 4.59375 -3.625 C 4.875 -3.984375 4.90625 -4.515625 4.90625 -4.953125 C 4.90625 -5.4375 4.84375 -5.96875 4.53125 -6.375 C 4.9375 -6.28125 5.921875 -5.96875 5.921875 -4.96875 C 5.921875 -4.3125 5.625 -3.8125 4.59375 -3.625 Z M 2.671875 -5.9375 C 2.671875 -6.15625 2.671875 -6.484375 3.296875 -6.484375 C 4.140625 -6.484375 4.5625 -6.125 4.5625 -4.953125 C 4.5625 -3.671875 4.25 -3.484375 2.671875 -3.484375 L 2.671875 -5.9375 Z M 1.3125 -0.34375 C 1.390625 -0.53125 1.390625 -0.8125 1.390625 -0.890625 L 1.390625 -5.9375 C 1.390625 -6.03125 1.390625 -6.296875 1.3125 -6.484375 L 2.453125 -6.484375 C 2.328125 -6.3125 2.328125 -6.125 2.328125 -5.96875 L 2.328125 -0.890625 C 2.328125 -0.796875 2.328125 -0.53125 2.40625 -0.34375 L 1.3125 -0.34375 Z M 3.4375 -3.125 C 3.515625 -3.140625 3.546875 -3.15625 3.625 -3.15625 C 3.78125 -3.15625 4 -3.171875 4.140625 -3.1875 C 4.296875 -2.953125 5.375 -1.171875 6.203125 -0.34375 L 5.234375 -0.34375 L 3.4375 -3.125 Z"/>
<path id="pos" d="M 3.21875 -1.578125 L 5.359375 -1.578125 C 5.453125 -1.578125 5.609375 -1.578125 5.609375 -1.734375 C 5.609375 -1.921875 5.453125 -1.921875 5.359375 -1.921875 L 3.21875 -1.921875 L 3.21875 -4.0625 C 3.21875 -4.140625 3.21875 -4.3125 3.0625 -4.3125 C 2.890625 -4.3125 2.890625 -4.15625 2.890625 -4.0625 L 2.890625 -1.921875 L 0.75 -1.921875 C 0.65625 -1.921875 0.484375 -1.921875 0.484375 -1.75 C 0.484375 -1.578125 0.640625 -1.578125 0.75 -1.578125 L 2.890625 -1.578125 L 2.890625 0.5625 C 2.890625 0.65625 2.890625 0.828125 3.046875 0.828125 C 3.21875 0.828125 3.21875 0.65625 3.21875 0.5625 L 3.21875 -1.578125 Z"/>
<path id="neg" d="M 5.1875 -1.578125 C 5.296875 -1.578125 5.46875 -1.578125 5.46875 -1.734375 C 5.46875 -1.921875 5.296875 -1.921875 5.1875 -1.921875 L 1.03125 -1.921875 C 0.921875 -1.921875 0.75 -1.921875 0.75 -1.75 C 0.75 -1.578125 0.90625 -1.578125 1.03125 -1.578125 L 5.1875 -1.578125 Z"/>
<path id="zero" d="M 4.578125 -3.1875 C 4.578125 -3.984375 4.53125 -4.78125 4.1875 -5.515625 C 3.734375 -6.484375 2.90625 -6.640625 2.5 -6.640625 C 1.890625 -6.640625 1.171875 -6.375 0.75 -5.453125 C 0.4375 -4.765625 0.390625 -3.984375 0.390625 -3.1875 C 0.390625 -2.4375 0.421875 -1.546875 0.84375 -0.78125 C 1.265625 0.015625 2 0.21875 2.484375 0.21875 C 3.015625 0.21875 3.78125 0.015625 4.21875 -0.9375 C 4.53125 -1.625 4.578125 -2.40625 4.578125 -3.1875 Z M 2.484375 0 C 2.09375 0 1.5 -0.25 1.328125 -1.203125 C 1.21875 -1.796875 1.21875 -2.71875 1.21875 -3.3125 C 1.21875 -3.953125 1.21875 -4.609375 1.296875 -5.140625 C 1.484375 -6.328125 2.234375 -6.421875 2.484375 -6.421875 C 2.8125 -6.421875 3.46875 -6.234375 3.65625 -5.25 C 3.765625 -4.6875 3.765625 -3.9375 3.765625 -3.3125 C 3.765625 -2.5625 3.765625 -1.890625 3.65625 -1.25 C 3.5 -0.296875 2.9375 0 2.484375 0 Z"/>
<path id="infty" d="M 5.0625 -2.703125 C 4.53125 -3.375 4.40625 -3.53125 4.09375 -3.78125 C 3.53125 -4.234375 2.984375 -4.40625 2.46875 -4.40625 C 1.3125 -4.40625 0.546875 -3.3125 0.546875 -2.140625 C 0.546875 -1 1.28125 0.109375 2.4375 0.109375 C 3.578125 0.109375 4.40625 -0.796875 4.890625 -1.59375 C 5.4375 -0.921875 5.546875 -0.765625 5.859375 -0.515625 C 6.421875 -0.0625 6.984375 0.109375 7.484375 0.109375 C 8.65625 0.109375 9.40625 -0.984375 9.40625 -2.15625 C 9.40625 -3.296875 8.671875 -4.40625 7.53125 -4.40625 C 6.375 -4.40625 5.546875 -3.5 5.0625 -2.703125 Z M 5.328125 -2.359375 C 5.734375 -3.078125 6.46875 -4.09375 7.59375 -4.09375 C 8.65625 -4.09375 9.1875 -3.046875 9.1875 -2.15625 C 9.1875 -1.171875 8.515625 -0.375 7.640625 -0.375 C 7.0625 -0.375 6.625 -0.78125 6.40625 -1 C 6.15625 -1.265625 5.9375 -1.578125 5.328125 -2.359375 Z M 4.640625 -1.9375 C 4.234375 -1.21875 3.484375 -0.203125 2.359375 -0.203125 C 1.3125 -0.203125 0.765625 -1.25 0.765625 -2.140625 C 0.765625 -3.125 1.4375 -3.921875 2.3125 -3.921875 C 2.890625 -3.921875 3.34375 -3.515625 3.546875 -3.296875 C 3.796875 -3.03125 4.03125 -2.71875 4.640625 -1.9375 Z"/>

<g id="Rp" transform="scale(2.75)"><use xlink:href="#bbR" x="-3"/><use xlink:href="#pos" x="4.195" y="1.494"/></g>
<g id="Rm" transform="scale(2.75)"><use xlink:href="#bbR" x="-3"/><use xlink:href="#neg" x="4.195" y="1.494"/></g>
<g id="null" transform="scale(2.75)"><use xlink:href="#zero"/></g>
<g id="oo" transform="scale(2.75)"><use xlink:href="#infty"/></g>
<g id="NEGoo"  transform="scale(2.75)"><use xlink:href="#infty"/><use xlink:href="#neg" x="-6.5" y="-0.35"/></g>
<g id="POSoo"  transform="scale(2.75)"><use xlink:href="#infty"/><use xlink:href="#pos" x="-6.5" y="-0.35"/></g>
<path id="aro" d="M 10 0 l -20 -10 10 10 -10 10 20 -10"/>
   </defs>
   <path style="stroke:red;fill:none" d="M 300 70 l 250 0" />
   <path style="stroke:blue;fill:none" d="M 300 70 l -250 0" />
   <circle cx="300" cy="70" r="4" style="fill:black"/>
   <circle cx="550" cy="70" r="4" style="fill:orange"/>
   <circle cx="50" cy="70" r="4" style="fill:orange"/>
   <use xlink:href="#aro" x="175" y="70" />
   <use xlink:href="#aro" x="425" y="70" />
   <use xlink:href="#Rm" x="100" y="50" />
   <use xlink:href="#Rp" x="480" y="50" />
   <path style="stroke:red;fill:none" d="M 300 550 A 200 200 0 0 0 300 150" />
   <path style="stroke:blue;fill:none" d="M 300 550 A 200 200 0 0 1 300 150" />	
   <circle cx="300" cy="550" r="4" style="fill:black"/>
   <circle cx="300" cy="150" r="4" style="fill:orange"/>
   <use xlink:href="#aro" transform="rotate(90)" x="350" y="-100" />
   <use xlink:href="#aro" transform="rotate(-90)" x="-350" y="500" />
   <use xlink:href="#null" x="293.5" y="99" />
   <use xlink:href="#Rm" x="70" y="300" />
   <use xlink:href="#Rp" x="510" y="300" />
   <use xlink:href="#null" x="293.5" y="579" />
   <use xlink:href="#oo" x="286.5" y="136" />
   <use xlink:href="#NEGoo" x="40" y="98" />
   <use xlink:href="#POSoo" x="540" y="98" />
</svg>
